<svg width="35" height="28" viewBox="0 0 35 28" fill="none" xmlns="http://www.w3.org/2000/svg">
<path d="M30.3421 4.65837H25.3557V4.1461C25.3557 1.85745 23.4983 0 21.2096 0H13.2795C10.9899 0 9.1334 1.85745 9.1334 4.1461V4.65837H4.1461C1.85653 4.65837 0 6.51491 0 8.80447V23.8539C0 26.1425 1.85653 28 4.1461 28H30.3439C32.6335 28 34.49 26.1425 34.49 23.8539V8.80447C34.4882 6.51398 32.6317 4.65837 30.3421 4.65837ZM17.2432 23.6991C12.9239 23.6991 9.41165 20.1869 9.41165 15.8676C9.41165 11.5492 12.9239 8.03607 17.2432 8.03607C21.5625 8.03607 25.0747 11.5483 25.0747 15.8676C25.0747 20.1869 21.5616 23.6991 17.2432 23.6991ZM21.3893 15.8676C21.3893 18.1516 19.5281 20.0137 17.2432 20.0137C14.9582 20.0137 13.0971 18.1516 13.0971 15.8676C13.0971 13.5826 14.9582 11.7215 17.2432 11.7215C19.5281 11.7215 21.3893 13.5826 21.3893 15.8676Z" fill="white" fill-opacity="0.57"/>
</svg>
