<svg width="28" height="27" viewBox="0 0 28 27" fill="none" xmlns="http://www.w3.org/2000/svg">
<path d="M8.18817 21.6C6.6975 21.6 5.47786 22.815 5.47786 24.3C5.47786 25.785 6.6975 27 8.18817 27C9.67884 27 10.8985 25.785 10.8985 24.3C10.8985 22.815 9.67884 21.6 8.18817 21.6ZM0.057251 0V2.7H2.76756L7.64611 12.96L5.74889 16.2C5.61338 16.605 5.47786 17.145 5.47786 17.55C5.47786 19.035 6.6975 20.25 8.18817 20.25H24.45V17.55H8.73023C8.59471 17.55 8.4592 17.415 8.4592 17.28V17.1449L9.67884 14.8499H19.707C20.7911 14.8499 21.6042 14.3099 22.0107 13.4999L26.8893 4.725C27.1603 4.455 27.1603 4.32 27.1603 4.05C27.1603 3.24 26.6182 2.7 25.8052 2.7H5.74889L4.52925 0H0.057251ZM21.7397 21.6C20.249 21.6 19.0294 22.815 19.0294 24.3C19.0294 25.785 20.249 27 21.7397 27C23.2304 27 24.45 25.785 24.45 24.3C24.45 22.815 23.2304 21.6 21.7397 21.6Z" fill="#BFBCBC"/>
</svg>
