<svg width="27" height="27" viewBox="0 0 27 27" fill="none" xmlns="http://www.w3.org/2000/svg">
<path d="M8.1 21.6C6.615 21.6 5.4 22.815 5.4 24.3C5.4 25.785 6.615 27 8.1 27C9.585 27 10.8 25.785 10.8 24.3C10.8 22.815 9.585 21.6 8.1 21.6ZM0 0V2.7H2.7L7.56 12.96L5.67 16.2C5.535 16.605 5.4 17.145 5.4 17.55C5.4 19.035 6.615 20.25 8.1 20.25H24.3V17.55H8.64C8.505 17.55 8.37 17.415 8.37 17.28V17.1449L9.585 14.8499H19.575C20.655 14.8499 21.465 14.3099 21.87 13.4999L26.73 4.725C27 4.455 27 4.32 27 4.05C27 3.24 26.46 2.7 25.65 2.7H5.67L4.455 0H0ZM21.6 21.6C20.115 21.6 18.9 22.815 18.9 24.3C18.9 25.785 20.115 27 21.6 27C23.085 27 24.3 25.785 24.3 24.3C24.3 22.815 23.085 21.6 21.6 21.6Z" fill="white"/>
</svg>
