<svg width="20" height="20" viewBox="0 0 20 20" fill="none" xmlns="http://www.w3.org/2000/svg">
<path fill-rule="evenodd" clip-rule="evenodd" d="M0 10C0 4.48578 4.48578 0 10 0C15.5142 0 20 4.48578 20 10C20 15.5142 15.5142 20 10 20C4.48578 20 0 15.5142 0 10ZM13.6826 13.6826C14.0083 13.3566 14.0083 12.8301 13.6826 12.5041L11.1783 10L13.6826 7.49589C14.0083 7.16996 14.0083 6.64338 13.6826 6.31745C13.3566 5.99168 12.8301 5.99168 12.5041 6.31745L10 8.82172L7.49589 6.31745C7.16996 5.99168 6.64338 5.99168 6.31745 6.31745C5.99168 6.64338 5.99168 7.16996 6.31745 7.49589L8.82172 10L6.31745 12.5041C5.99168 12.8301 5.99168 13.3566 6.31745 13.6826C6.47996 13.8451 6.69328 13.9267 6.90675 13.9267C7.12006 13.9267 7.33338 13.8451 7.49589 13.6826L10 11.1783L12.5041 13.6826C12.6666 13.8451 12.88 13.9267 13.0933 13.9267C13.3067 13.9267 13.5201 13.8451 13.6826 13.6826Z" fill="#CF3737"/>
</svg>
