<svg width="138" height="138" viewBox="0 0 138 138" fill="none" xmlns="http://www.w3.org/2000/svg">
<path d="M102.127 35.297C105.422 31.0966 105.997 25.8055 103.792 19.9959C102.218 15.8469 99.7516 12.8724 99.6475 12.748C98.8394 11.7811 97.3999 11.6526 96.4329 12.4613C95.466 13.2693 95.3382 14.7062 96.1435 15.6731C96.2544 15.8077 104.074 25.4181 98.5352 32.48C90.559 42.6503 99.0632 56.0636 99.4291 56.6295C99.8659 57.305 100.6 57.6729 101.348 57.6729C101.773 57.6729 102.202 57.5545 102.585 57.3071C103.642 56.6228 103.947 55.2102 103.262 54.1514C103.192 54.0432 96.1658 42.8965 102.127 35.297Z" fill="white"/>
<path d="M117.445 35.297C120.74 31.0966 121.315 25.8055 119.11 19.9959C117.535 15.8469 115.069 12.8724 114.965 12.748C114.157 11.7811 112.717 11.6526 111.75 12.4613C110.785 13.2686 110.656 14.7055 111.461 15.6724C111.541 15.7691 119.403 25.4039 113.853 32.48C105.876 42.6503 114.381 56.0636 114.747 56.6295C115.184 57.305 115.917 57.6729 116.665 57.6729C117.09 57.6729 117.519 57.5545 117.903 57.3071C118.961 56.6228 119.265 55.2102 118.58 54.1514C118.511 54.0432 111.484 42.8965 117.445 35.297Z" fill="white"/>
<path d="M21.6186 36.3546C24.9136 32.1542 25.489 26.8632 23.284 21.0535C21.7086 16.9045 19.2432 13.93 19.1391 13.8056C18.3311 12.8387 16.8922 12.7102 15.9246 13.5189C14.959 14.3262 14.8299 15.7631 15.6352 16.73C15.7156 16.8267 23.5775 26.4615 18.0275 33.5377C10.05 43.708 18.5549 57.1205 18.9214 57.6871C19.3582 58.3626 20.0912 58.7305 20.8397 58.7305C21.2643 58.7305 21.6937 58.6122 22.0764 58.3647C23.1346 57.6804 23.4382 56.2672 22.7532 55.209C22.6836 55.1008 15.6568 43.9541 21.6186 36.3546Z" fill="white"/>
<path d="M36.9366 36.3546C40.2316 32.1542 40.8071 26.8632 38.6027 21.0535C37.0279 16.9045 34.5619 13.93 34.4578 13.8056C33.6498 12.8387 32.2109 12.7102 31.2433 13.5189C30.2777 14.3262 30.1485 15.7631 30.9539 16.73C31.0343 16.8267 38.8962 26.4615 33.3455 33.5377C25.368 43.708 33.8729 57.1205 34.2387 57.6871C34.6755 58.3626 35.4085 58.7305 36.157 58.7305C36.5817 58.7305 37.011 58.6122 37.3944 58.3647C38.4526 57.6804 38.7562 56.2672 38.0713 55.209C38.0016 55.1008 30.9748 43.9541 36.9366 36.3546Z" fill="white"/>
<path d="M130.424 108.062H125.583C124.447 79.5931 102.153 56.4762 74.0314 54.0352V51.7112C76.8869 50.0032 78.6598 46.9415 78.6598 43.5376C78.6598 38.2689 74.3722 33.9819 69.1035 33.9819C69.069 33.9819 68.9317 33.9819 68.8972 33.9819C63.6278 33.9819 59.3409 38.2689 59.3409 43.5376C59.3409 46.9415 61.1145 50.0038 63.9686 51.7112V54.0352C35.8479 56.4762 13.5532 79.5925 12.4166 108.062H7.57583C3.39844 108.062 0 111.46 0 115.637V118.491C0 122.671 3.39844 126.071 7.57516 126.071H130.425C134.602 126.071 138 122.671 138 118.491V115.637C137.999 111.46 134.601 108.062 130.424 108.062ZM63.9037 43.5376C63.9037 40.7856 66.1432 38.5461 68.8959 38.5461C68.931 38.5461 69.0676 38.5461 69.1021 38.5461C71.8548 38.5461 74.0943 40.7856 74.0943 43.5376C74.0943 45.5952 72.8461 47.4155 70.9142 48.1734C70.0406 48.5163 69.4666 49.3594 69.4666 50.298V53.8215H68.5314V50.298C68.5314 49.3594 67.9567 48.5169 67.0837 48.1734C65.1519 47.4148 63.9037 45.5952 63.9037 43.5376ZM130.424 121.506H7.57448C5.9138 121.506 4.56349 120.153 4.56349 118.49V115.637C4.56349 113.977 5.91448 112.626 7.57448 112.626H11.3266C11.3475 112.627 11.3671 112.63 11.3881 112.63H93.3415C94.6012 112.63 95.6236 111.608 95.6236 110.347C95.6236 109.088 94.6012 108.065 93.3415 108.065H16.9868C18.1809 80.5371 40.8936 58.4959 68.6856 58.385H69.3131C97.1058 58.4959 119.817 80.5364 121.012 108.065H108.102C106.842 108.065 105.82 109.088 105.82 110.347C105.82 111.608 106.842 112.63 108.102 112.63L125.725 112.626H130.423C132.084 112.626 133.434 113.977 133.434 115.637V118.49H133.435C133.435 120.153 132.084 121.506 130.424 121.506Z" fill="white"/>
</svg>
