<svg width="23" height="23" viewBox="0 0 23 23" fill="none" xmlns="http://www.w3.org/2000/svg">
<path d="M22.8594 21.5047L1.49532 0.14057C1.30812 -0.046531 1.00481 -0.046531 0.81762 0.14057L0.140149 0.818085C-0.0470418 1.00519 -0.0470418 1.30859 0.140149 1.49574L4.1026 5.45823C2.21066 6.95539 0.780424 8.99639 0.0226325 11.3538C-0.00777983 11.4488 -0.00777983 11.5517 0.0226325 11.6467C1.65245 16.7183 6.26492 20.1254 11.4998 20.1254C13.5474 20.1254 15.5163 19.6065 17.2744 18.63L21.5043 22.8599C21.6915 23.047 21.9948 23.047 22.182 22.8599L22.8594 22.1824C23.0466 21.9953 23.0466 21.6919 22.8594 21.5047ZM11.4998 18.2087C7.80072 18.2087 4.79143 15.1993 4.79143 11.5003C4.79143 10.0442 5.27026 8.63962 6.13276 7.48835L8.21603 9.57166C7.8712 10.1506 7.66645 10.8045 7.66645 11.5003C7.66645 13.6139 9.38611 15.3336 11.4998 15.3336C12.1955 15.3336 12.8495 15.1288 13.4284 14.784L15.5117 16.8673C14.3604 17.7298 12.9559 18.2087 11.4998 18.2087Z" fill="#74A049"/>
<path d="M11.0957 7.9638C11.0204 8.14304 11.0611 8.3508 11.1987 8.48835L14.5117 11.8014C14.6034 11.8931 14.726 11.9417 14.8505 11.9417C14.9132 11.9417 14.9764 11.9296 15.0362 11.9043C15.2159 11.8285 15.332 11.6521 15.3296 11.457C15.3058 9.35733 13.6427 7.69431 11.543 7.67041C11.3521 7.69098 11.1715 7.78411 11.0957 7.9638Z" fill="#74A049"/>
<path d="M8.0686 5.35839C8.21226 5.5025 8.4317 5.53902 8.61422 5.45196C9.52951 5.01397 10.5005 4.79169 11.5 4.79169C15.1991 4.79169 18.2084 7.80103 18.2084 11.5001C18.2084 12.4996 17.9861 13.4706 17.5481 14.3859C17.4606 14.5693 17.498 14.7878 17.6417 14.9315L19.3024 16.5922C19.3923 16.682 19.5139 16.7326 19.6412 16.7326C19.6417 16.7326 19.6422 16.7326 19.6422 16.7326C19.7699 16.7321 19.8921 16.6811 19.9819 16.5908C21.3436 15.2155 22.3796 13.5057 22.9772 11.6465C23.0076 11.5515 23.0076 11.4486 22.9772 11.3536C21.3474 6.28207 16.7349 2.875 11.5 2.875C10.0635 2.875 8.65169 3.13047 7.30353 3.63495C7.15097 3.69204 7.03772 3.82259 7.00309 3.98215C6.96845 4.14127 7.0176 4.30739 7.13269 4.42248L8.0686 5.35839Z" fill="#74A049"/>
</svg>
