<svg width="24" height="18" viewBox="0 0 24 18" fill="none" xmlns="http://www.w3.org/2000/svg">
<path d="M12 5.72729C10.1946 5.72729 8.72729 7.19455 8.72729 9.00002C8.72729 10.8055 10.1946 12.2728 12 12.2728C13.8055 12.2728 15.2727 10.8055 15.2727 9.00002C15.2727 7.19455 13.8054 5.72729 12 5.72729Z" fill="#74A049"/>
<path d="M12 0.818237C6.54546 0.818237 1.88729 4.21093 0 9.00006C1.88729 13.7891 6.54546 17.1819 12 17.1819C17.46 17.1819 22.1128 13.7891 24.0001 9.00006C22.1128 4.21093 17.46 0.818237 12 0.818237ZM12 14.4546C8.98911 14.4546 6.54546 12.0109 6.54546 9.00001C6.54546 5.9891 8.98911 3.54549 12 3.54549C15.0109 3.54549 17.4546 5.98915 17.4546 9.00006C17.4546 12.011 15.0109 14.4546 12 14.4546Z" fill="#74A049"/>
</svg>
