<svg width="33" height="33" viewBox="0 0 33 33" fill="none" xmlns="http://www.w3.org/2000/svg">
<circle cx="16.5" cy="16.5" r="16.5" fill="#414141"/>
<path d="M23.5331 10.8252L22.1738 9.46579C21.5528 8.84472 20.5423 8.84475 19.9213 9.46579C19.3365 10.0506 10.4052 18.9826 9.80833 19.5795C9.74475 19.6431 9.70216 19.7275 9.68698 19.8102L9.00735 23.4805C8.98101 23.6228 9.02636 23.769 9.1287 23.8713C9.23115 23.9737 9.37734 24.019 9.51946 23.9927L13.1895 23.313C13.2743 23.2971 13.3576 23.2541 13.4202 23.1916L23.5331 13.0779C24.1556 12.4554 24.1557 11.4478 23.5331 10.8252ZM9.98792 23.012L10.399 20.7918L12.208 22.6008L9.98792 23.012ZM13.1094 22.2593L10.7405 19.8903L19.3893 11.2409L21.7582 13.6099L13.1094 22.2593ZM22.9116 12.4564L22.3796 12.9885L20.0107 10.6194L20.5427 10.0873C20.8211 9.80894 21.274 9.80891 21.5524 10.0873L22.9116 11.4467C23.1907 11.7257 23.1907 12.1773 22.9116 12.4564Z" fill="white"/>
</svg>
