<svg width="29" height="33" viewBox="0 0 29 33" fill="none" xmlns="http://www.w3.org/2000/svg">
<path d="M14.3803 17.7813C14.4145 17.7813 14.4487 17.7813 14.4897 17.7813C14.5033 17.7813 14.517 17.7813 14.5307 17.7813C14.5512 17.7813 14.5785 17.7813 14.599 17.7813C16.6013 17.7472 18.2209 17.0433 19.4168 15.697C22.0477 12.7312 21.6104 7.64693 21.5626 7.16173C21.3917 3.51936 19.6696 1.77677 18.2482 0.963554C17.189 0.355353 15.9521 0.0273349 14.5717 0H14.5238C14.517 0 14.5033 0 14.4965 0H14.4555C13.697 0 12.2072 0.123007 10.779 0.936219C9.34387 1.74943 7.59444 3.49203 7.4236 7.16173C7.37576 7.64693 6.93841 12.7312 9.56939 15.697C10.7585 17.0433 12.378 17.7472 14.3803 17.7813ZM9.2482 7.33257C9.2482 7.31207 9.25504 7.29157 9.25504 7.2779C9.48055 2.37813 12.9589 1.85194 14.4487 1.85194H14.476C14.4897 1.85194 14.5102 1.85194 14.5307 1.85194C16.3758 1.89294 19.5124 2.64465 19.7243 7.2779C19.7243 7.29841 19.7243 7.31891 19.7311 7.33257C19.738 7.38041 20.2163 12.0273 18.0432 14.4738C17.1821 15.4442 16.0341 15.9226 14.5238 15.9362C14.5102 15.9362 14.5033 15.9362 14.4897 15.9362C14.476 15.9362 14.4692 15.9362 14.4555 15.9362C12.9521 15.9226 11.7972 15.4442 10.943 14.4738C8.77668 12.041 9.24137 7.37358 9.2482 7.33257Z" fill="#414141"/>
<path d="M28.533 26.2141C28.533 26.2072 28.533 26.2004 28.533 26.1936C28.533 26.1389 28.5262 26.0842 28.5262 26.0227C28.4852 24.6696 28.3963 21.5056 25.4305 20.4942C25.41 20.4874 25.3827 20.4806 25.3622 20.4737C22.2802 19.6879 19.7175 17.9111 19.6902 17.8906C19.2733 17.5968 18.6993 17.6993 18.4054 18.1161C18.1116 18.533 18.2141 19.107 18.631 19.4009C18.7471 19.4829 21.4669 21.3758 24.8701 22.2505C26.4624 22.8177 26.6401 24.5193 26.6879 26.0774C26.6879 26.1389 26.6879 26.1936 26.6947 26.2482C26.7016 26.8633 26.6606 27.8132 26.5512 28.3599C25.4442 28.9886 21.1048 31.1617 14.5034 31.1617C7.92936 31.1617 3.56262 28.9817 2.44872 28.353C2.33939 27.8063 2.29155 26.8564 2.30522 26.2414C2.30522 26.1867 2.31205 26.1321 2.31205 26.0706C2.35989 24.5125 2.53756 22.8109 4.12982 22.2437C7.53301 21.369 10.2528 19.4692 10.369 19.394C10.7859 19.1002 10.8884 18.5261 10.5945 18.1093C10.3007 17.6924 9.72663 17.5899 9.30977 17.8838C9.28244 17.9043 6.73346 19.681 3.63779 20.4669C3.61046 20.4737 3.58996 20.4806 3.56945 20.4874C0.603622 21.5056 0.514784 24.6696 0.473782 26.0159C0.473782 26.0774 0.473781 26.1321 0.466948 26.1867C0.466948 26.1936 0.466948 26.2004 0.466948 26.2072C0.460114 26.5626 0.453281 28.3872 0.815467 29.3029C0.883804 29.4806 1.00681 29.6309 1.17082 29.7334C1.37583 29.8701 6.28927 32.9999 14.5102 32.9999C22.7312 32.9999 27.6446 29.8633 27.8496 29.7334C28.0068 29.6309 28.1367 29.4806 28.205 29.3029C28.5467 28.394 28.5398 26.5694 28.533 26.2141Z" fill="#414141"/>
</svg>
